<?xml version="1.0" standalone="no"?>
<!DOCTYPE svg PUBLIC "-//W3C//DTD SVG 20010904//EN"
 "http://www.w3.org/TR/2001/REC-SVG-20010904/DTD/svg10.dtd">
<svg version="1.0" xmlns="http://www.w3.org/2000/svg"
 width="1183.000000pt" height="301.000000pt" viewBox="0 0 1183.000000 301.000000"
 preserveAspectRatio="xMidYMid meet">

<g transform="translate(0.000000,301.000000) scale(0.100000,-0.100000)"
fill="#000000" stroke="none">
<path d="M1 2353 c1 -400 5 -632 10 -593 4 36 15 88 22 115 8 28 21 70 28 95
7 25 12 48 11 53 -1 4 3 7 8 7 6 0 10 11 10 25 0 14 5 25 10 25 6 0 10 9 10
19 0 10 21 59 46 107 70 136 86 164 96 158 4 -3 8 2 8 11 0 22 75 116 85 107
5 -4 5 -2 1 5 -9 16 151 176 167 167 7 -4 9 -4 5 1 -4 4 14 25 40 45 46 37 68
37 54 1 -9 -25 -89 -101 -98 -93 -4 4 -4 2 -1 -4 4 -7 -9 -26 -28 -43 -19 -17
-35 -35 -35 -40 0 -6 -6 -14 -14 -18 -8 -4 -15 -12 -17 -18 -4 -24 -12 -34
-20 -29 -5 3 -9 2 -8 -3 3 -20 -2 -34 -11 -28 -6 4 -9 3 -8 -2 3 -13 -31 -73
-42 -73 -6 0 -10 -5 -10 -11 0 -18 -43 -99 -52 -99 -4 0 -8 -9 -8 -19 0 -11
-5 -23 -10 -26 -6 -4 -8 -11 -5 -16 4 -5 2 -9 -2 -9 -5 0 -9 -10 -10 -22 -1
-11 -6 -24 -10 -27 -4 -3 -10 -15 -11 -26 -2 -11 -10 -33 -18 -50 -7 -16 -16
-46 -19 -65 -3 -19 -12 -60 -20 -91 -48 -185 -32 -536 33 -746 6 -18 8 -33 5
-33 -3 0 -1 -6 4 -12 12 -15 38 -90 35 -100 -1 -5 2 -8 8 -8 6 0 9 -3 8 -7 -1
-5 6 -23 16 -41 10 -19 19 -44 22 -55 2 -12 8 -23 14 -25 6 -2 19 -21 30 -42
10 -20 40 -67 65 -104 25 -36 45 -71 45 -76 0 -6 6 -10 13 -10 6 0 21 -12 31
-27 11 -14 13 -23 6 -18 -9 5 -11 4 -6 -3 4 -7 12 -12 17 -12 14 0 129 -116
129 -130 0 -6 4 -9 9 -5 5 3 15 -1 23 -8 7 -7 26 -20 41 -30 15 -10 25 -22 22
-26 -2 -5 3 -8 13 -7 9 0 16 -5 14 -12 -1 -8 2 -11 8 -7 12 8 53 -19 43 -29
-4 -4 -1 -5 7 -2 22 8 44 -9 37 -28 -7 -17 -91 -59 -143 -72 -19 -5 -25 -4
-20 4 4 7 2 10 -7 6 -8 -3 -25 7 -39 23 -13 15 -30 29 -37 31 -7 1 -22 12 -34
24 -12 11 -16 17 -8 13 10 -5 12 -4 7 4 -4 6 -12 9 -17 6 -10 -7 -160 140
-157 153 2 4 -13 23 -32 42 -41 41 -90 111 -90 129 0 7 -4 10 -9 7 -4 -3 -17
14 -27 37 -10 23 -21 44 -25 47 -6 5 -33 51 -34 60 -4 23 -18 50 -26 50 -6 0
-8 4 -4 9 3 5 0 15 -7 23 -18 18 -48 85 -48 106 0 10 -5 23 -12 30 -7 7 -8 12
-4 12 5 0 4 6 -2 13 -6 7 -13 25 -16 40 -2 15 -7 31 -10 36 -4 5 -11 33 -17
63 -6 29 -15 69 -19 88 -4 19 -8 -259 -9 -617 l-1 -653 5915 0 5915 0 0 624 0
625 -27 -10 c-30 -10 -63 -52 -127 -159 -22 -36 -43 -68 -48 -71 -14 -9 -21
-49 -23 -133 -3 -104 0 -114 39 -118 25 -2 32 -8 34 -30 l3 -28 -123 3 c-117
2 -123 3 -126 23 -2 16 4 24 27 32 33 12 32 10 35 117 1 51 -28 141 -51 160
-6 6 -13 16 -15 24 -2 8 -9 22 -16 30 -7 9 -13 21 -14 26 -1 6 -10 19 -20 29
-9 10 -15 24 -11 29 3 6 2 7 -4 4 -5 -4 -16 5 -24 20 -8 14 -29 32 -47 40 -26
11 -33 19 -30 36 3 21 7 22 103 22 l100 0 0 -50 c0 -38 6 -57 22 -74 12 -13
20 -28 17 -33 -3 -4 0 -8 6 -8 6 0 9 -4 5 -9 -3 -6 3 -18 13 -28 11 -10 24
-26 29 -37 9 -16 15 -9 48 50 21 38 42 70 47 72 4 2 8 12 8 23 0 10 5 19 12
19 6 0 4 8 -6 19 -10 11 -16 28 -14 38 3 15 14 18 58 19 30 0 70 1 88 2 l32 2
0 855 0 855 -5915 0 -5915 0 1 -657z m2381 -152 c61 -35 121 -97 111 -115 -3
-6 -3 -8 2 -4 20 19 109 -145 130 -241 3 -11 7 -31 10 -43 34 -150 34 -342 0
-513 -19 -101 -26 -129 -39 -159 -8 -20 -12 -36 -9 -36 3 0 -2 -11 -11 -25 -9
-13 -16 -31 -16 -39 0 -20 -39 -109 -51 -117 -5 -3 -12 -16 -14 -30 -3 -13 -9
-25 -15 -27 -6 -2 -8 -8 -4 -13 3 -5 0 -9 -6 -9 -6 0 -9 -4 -6 -8 3 -5 -4 -18
-14 -30 -11 -12 -20 -28 -20 -37 0 -9 -7 -18 -15 -21 -8 -4 -15 -12 -15 -20 0
-19 -56 -95 -64 -87 -3 3 -6 0 -6 -8 0 -16 -165 -219 -178 -219 -4 0 -25 -17
-47 -38 -43 -41 -165 -131 -221 -163 -19 -10 -49 -27 -67 -38 -104 -59 -278
-111 -436 -130 -86 -11 -254 -4 -246 10 3 4 -4 5 -15 2 -11 -3 -52 3 -90 13
-60 15 -70 21 -70 40 0 24 5 27 85 44 62 14 215 82 275 123 25 16 50 30 57 30
7 0 11 5 10 11 -1 5 5 10 13 11 8 1 14 6 13 12 -1 6 11 25 27 42 17 17 30 37
30 44 0 7 8 24 18 37 20 29 27 176 11 232 -5 18 -11 45 -14 59 -3 14 -16 47
-31 72 -14 26 -22 52 -18 58 4 7 3 9 -3 6 -10 -6 -40 48 -32 55 2 2 -6 14 -18
27 -12 13 -20 27 -18 31 3 5 -2 11 -11 14 -8 3 -12 10 -9 16 3 5 2 10 -4 10
-11 0 -117 142 -113 152 1 5 -2 7 -6 5 -11 -3 -132 117 -132 131 0 37 74 1
127 -62 14 -17 22 -24 17 -17 -4 9 6 5 24 -8 18 -12 29 -27 26 -33 -4 -6 -2
-8 3 -5 15 9 196 -170 187 -185 -4 -6 -3 -8 3 -5 10 6 73 -81 73 -102 0 -6 4
-11 9 -11 8 0 60 -97 65 -123 2 -7 5 -19 9 -27 20 -57 31 -127 31 -205 -1 -85
-4 -116 -19 -175 -19 -71 -19 -68 17 -67 18 1 39 8 46 15 8 7 18 10 23 6 5 -3
8 0 7 6 -2 6 21 24 50 40 28 16 52 26 53 22 0 -4 3 0 7 9 10 22 119 109 127
101 4 -4 5 -2 3 4 -4 13 92 120 104 116 4 -1 7 1 7 5 -3 21 2 33 16 33 8 0 14
3 13 8 -5 15 23 52 35 46 7 -4 9 -4 5 1 -7 7 45 93 65 106 5 3 8 9 8 13 -3 20
0 26 9 21 6 -4 9 -3 8 2 -4 16 14 53 23 47 5 -3 9 -2 8 3 -3 18 2 31 21 53 11
13 20 29 20 35 0 7 11 37 24 66 36 82 44 105 47 127 0 4 4 12 9 17 7 9 16 48
35 140 22 113 23 241 0 345 -3 14 -8 40 -11 58 -3 18 -10 35 -15 38 -5 3 -7 9
-4 14 3 5 1 11 -5 15 -5 3 -10 14 -10 24 0 10 -7 24 -15 31 -8 7 -13 16 -10
20 3 4 -2 11 -11 14 -8 3 -12 11 -8 17 4 7 3 9 -3 6 -10 -6 -43 26 -43 43 0 6
-3 9 -7 9 -21 -3 -44 2 -39 9 2 4 -33 3 -77 -1 -45 -5 -94 -9 -109 -10 -14 -1
-24 -5 -22 -9 5 -8 -72 -33 -94 -31 -7 0 -11 -1 -8 -5 9 -8 -46 -33 -61 -27
-8 2 -12 1 -9 -4 7 -10 -52 -37 -61 -28 -3 4 -11 0 -17 -8 -6 -9 -25 -16 -43
-18 -17 -1 -29 -5 -28 -8 6 -9 -103 -38 -183 -49 -76 -10 -164 -2 -233 22 -66
23 -209 116 -209 136 0 4 4 13 9 21 7 10 13 11 30 2 12 -7 20 -15 17 -19 -2
-4 3 -8 12 -9 9 -1 46 -9 82 -17 72 -17 158 -10 240 19 24 9 50 13 58 10 7 -2
11 -1 8 3 -6 9 113 67 121 58 3 -3 11 1 17 8 6 8 38 29 71 47 193 103 231 122
269 136 87 33 142 43 217 39 62 -3 85 -9 131 -35z m3389 -902 c11 -5 17 -14
14 -20 -4 -5 -2 -8 3 -7 14 4 112 -104 105 -115 -3 -6 -2 -7 4 -4 12 8 96 -77
86 -87 -5 -4 -2 -6 6 -4 8 2 20 -7 26 -19 7 -13 14 -21 17 -18 2 3 15 -7 29
-22 18 -20 19 -24 4 -13 -19 14 -19 14 -6 -2 7 -10 17 -18 22 -18 5 0 25 -17
44 -37 l35 -38 -1 162 c-1 171 -3 178 -49 185 -19 2 -25 9 -25 28 0 25 0 25
103 26 100 2 102 1 102 -22 0 -28 -19 -42 -31 -23 -7 11 -9 10 -9 -4 0 -10 -4
-16 -9 -13 -6 4 -10 -65 -11 -166 -2 -95 -3 -189 -4 -208 -1 -19 -3 -65 -4
-102 -2 -59 -4 -67 -19 -61 -28 9 -223 205 -216 216 3 6 1 7 -4 4 -6 -4 -50
35 -97 85 l-87 92 2 -145 c1 -79 6 -154 12 -165 5 -12 22 -25 38 -28 20 -4 29
-11 29 -25 0 -14 -5 -19 -15 -15 -8 4 -15 1 -15 -4 0 -11 -138 -15 -172 -5
-31 8 -22 42 14 51 20 5 32 15 34 27 2 11 4 124 5 250 1 214 4 275 16 275 2 0
13 -5 24 -11z m1075 1 c14 0 23 -4 20 -8 -2 -4 10 -7 27 -5 18 1 112 4 210 6
l177 4 0 -56 c-1 -33 -7 -64 -15 -75 -14 -18 -15 -18 -26 10 -7 16 -12 31 -12
34 1 3 -32 5 -73 6 l-75 1 1 -215 c1 -118 4 -220 7 -228 3 -8 19 -14 39 -14
31 0 34 -3 34 -30 l0 -30 -122 3 c-111 2 -123 4 -126 21 -5 22 19 40 30 23 6
-9 8 -9 8 1 0 7 4 11 8 8 7 -4 12 27 14 104 1 14 1 100 0 192 l-2 166 -40 -5
c-26 -4 -46 -1 -57 8 -9 8 -14 9 -10 3 4 -7 -5 -14 -24 -18 -19 -4 -33 -13
-36 -26 -3 -11 -12 -20 -21 -20 -12 0 -14 11 -9 65 7 75 13 89 34 81 8 -3 26
-6 39 -6z m1967 1 c21 -5 41 -11 43 -14 11 -10 -9 -147 -20 -147 -6 0 -13 12
-14 27 -1 15 -9 31 -17 36 -9 4 -13 12 -10 18 3 5 0 6 -8 3 -8 -3 -22 2 -31
11 -11 11 -16 12 -16 4 0 -7 -3 -10 -6 -6 -12 12 -62 -15 -73 -39 -9 -20 -8
-28 4 -40 8 -9 13 -20 9 -25 -3 -5 0 -8 8 -7 7 2 12 -3 11 -9 -2 -7 0 -12 5
-11 13 5 52 -28 44 -37 -4 -5 -1 -5 6 -1 15 9 65 -31 57 -45 -3 -4 0 -11 6
-15 8 -5 9 -3 4 6 -5 9 -4 11 4 6 45 -28 65 -153 36 -223 -30 -72 -117 -112
-212 -98 -94 14 -94 14 -91 107 2 66 6 83 18 83 8 0 15 -9 16 -20 1 -12 6 -30
12 -42 6 -11 8 -24 4 -28 -4 -5 -2 -5 5 -2 6 4 13 2 15 -3 5 -17 75 -24 108
-10 26 11 39 30 46 68 1 6 -2 12 -7 12 -5 0 -9 6 -9 14 0 7 -11 21 -25 30 -14
9 -25 23 -25 32 0 8 -4 13 -8 10 -12 -7 -53 24 -46 35 3 5 0 8 -8 7 -7 -2 -12
3 -10 10 1 8 -2 11 -7 8 -12 -8 -32 18 -50 63 -17 42 -18 144 -2 149 6 2 11 9
11 16 0 20 37 49 51 40 7 -4 10 -3 5 4 -4 7 10 14 36 20 56 13 85 13 131 3z
m623 -1 c14 0 23 -3 21 -7 -3 -5 86 -6 196 -3 133 4 205 2 209 -5 4 -5 7 -37
5 -69 -2 -62 -20 -86 -31 -41 -4 14 -11 25 -17 25 -6 0 -8 4 -5 9 4 5 -3 7
-14 4 -13 -3 -20 0 -20 8 0 12 -2 12 -9 0 -7 -10 -21 -12 -55 -8 l-47 7 1
-218 c1 -135 5 -222 12 -229 6 -7 23 -13 39 -13 26 0 29 -3 29 -32 0 -25 -3
-29 -10 -18 -6 10 -10 11 -10 3 0 -10 -29 -12 -112 -10 -101 2 -113 4 -116 21
-5 22 19 40 30 23 6 -9 8 -9 8 1 0 7 4 11 8 8 9 -6 8 -21 18 251 l7 221 -42
-11 c-32 -9 -46 -8 -61 1 -11 7 -20 8 -20 3 0 -5 -10 -11 -22 -13 -13 -2 -27
-13 -33 -25 -17 -39 -35 -28 -35 21 0 59 18 109 37 102 8 -3 26 -6 39 -6z
m-5426 -9 c77 -10 164 -46 154 -64 -4 -7 -3 -9 1 -4 9 7 45 -20 45 -34 0 -5 8
-18 17 -28 9 -11 18 -26 19 -33 1 -7 7 -37 13 -67 12 -59 5 -152 -13 -163 -6
-4 -8 -8 -4 -8 4 0 2 -14 -4 -30 -13 -39 -75 -103 -90 -94 -7 4 -8 3 -4 -5 9
-15 -81 -54 -111 -48 -12 2 -20 0 -17 -5 3 -5 -72 -7 -173 -6 l-178 3 0 25 c0
18 7 26 25 30 31 7 35 36 35 283 0 162 -2 180 -18 192 -11 8 -25 11 -33 8 -16
-6 -29 20 -21 41 4 11 36 14 148 14 78 1 172 -3 209 -7z m856 1 c-3 -5 7 -7
22 -6 15 2 78 5 140 7 l113 5 -2 -52 c-1 -28 -5 -58 -8 -66 -8 -20 -31 -24
-31 -6 0 30 -30 46 -86 46 l-54 0 0 -80 0 -80 70 0 c40 0 70 4 70 10 0 6 7 10
16 10 14 0 15 -9 11 -57 -4 -32 -6 -68 -7 -80 0 -14 -6 -23 -15 -23 -8 0 -15
8 -15 18 0 30 -22 42 -77 42 l-53 0 0 -89 c0 -107 5 -113 87 -109 55 3 59 5
72 36 23 51 44 42 38 -15 -11 -106 -9 -103 -98 -103 -56 0 -79 4 -80 13 0 10
-2 10 -6 0 -3 -9 -30 -13 -84 -13 -56 0 -79 4 -80 13 0 9 -2 9 -6 -1 -7 -17
-23 -5 -23 19 0 14 9 21 29 25 19 4 31 14 35 28 3 11 6 116 6 232 0 227 1 224
-51 224 -22 0 -34 22 -25 45 4 10 20 15 51 15 26 0 44 -4 41 -8z m3132 -21
c-2 -20 -9 -27 -30 -29 l-27 -3 -1 -235 c0 -182 2 -235 12 -238 7 -3 25 -7 41
-10 21 -5 27 -12 27 -34 0 -21 -2 -24 -10 -12 -6 9 -10 10 -10 3 0 -9 -28 -12
-97 -12 -116 1 -133 4 -133 29 0 23 20 37 29 21 5 -7 12 -4 19 11 9 17 12 87
10 248 l-3 225 -23 3 c-25 4 -37 23 -29 46 4 10 32 13 117 13 l111 0 -3 -26z
m2650 18 c29 -6 50 -14 47 -19 -3 -4 3 -7 13 -6 9 0 21 -9 27 -21 5 -13 13
-23 18 -23 4 0 5 -4 2 -10 -3 -5 -1 -10 5 -10 13 0 11 -108 -2 -116 -5 -3 -6
-10 -3 -15 4 -5 2 -9 -2 -9 -5 0 -14 -14 -20 -31 -8 -20 -16 -28 -24 -23 -7 4
-9 3 -5 -4 3 -5 0 -12 -6 -15 -10 -3 -10 -7 1 -20 7 -10 11 -17 9 -17 -2 0 15
-21 39 -46 23 -26 40 -50 37 -55 -3 -5 0 -9 6 -9 6 0 26 -16 45 -35 19 -19 50
-38 68 -43 25 -6 33 -14 35 -35 3 -27 2 -27 -55 -27 -111 0 -144 20 -221 133
-18 26 -29 47 -25 47 4 0 -3 7 -15 16 -12 8 -20 19 -18 23 3 4 -13 8 -35 10
l-40 2 3 -83 3 -83 30 -5 c22 -4 31 -11 33 -29 2 -15 0 -21 -7 -17 -6 4 -11 2
-11 -3 0 -7 -33 -11 -90 -11 -65 0 -90 3 -90 13 0 8 -3 7 -10 -3 -7 -11 -12
-12 -21 -3 -17 17 -6 47 21 53 l25 6 3 229 c2 202 0 231 -14 242 -9 6 -22 9
-30 6 -16 -6 -29 20 -21 40 6 17 215 21 295 6z"/>
<path d="M5895 1000 c10 -11 20 -20 23 -20 3 0 -3 9 -13 20 -10 11 -20 20 -23
20 -3 0 3 -9 13 -20z"/>
<path d="M3830 1026 c0 -198 7 -246 35 -246 9 0 14 -4 11 -8 -2 -4 32 -4 76 0
78 7 123 25 141 55 5 7 13 10 19 7 6 -4 8 -3 4 4 -3 6 -1 16 6 24 25 26 34
128 18 188 -7 25 -11 46 -11 48 1 2 -18 22 -43 46 -52 51 -117 76 -198 76
l-58 0 0 -194z"/>
<path d="M10568 1222 l-38 -3 0 -105 0 -104 44 0 c25 0 48 5 51 10 4 6 10 8
15 5 11 -7 20 26 22 75 1 52 0 54 -29 91 -24 29 -33 34 -65 31z"/>
<path d="M10720 766 c0 -2 8 -10 18 -17 15 -13 16 -12 3 4 -13 16 -21 21 -21
13z"/>
</g>
</svg>
